<svg width="20" height="20" viewBox="0 0 20 20" fill="none" xmlns="http://www.w3.org/2000/svg">
<rect opacity="0.01" width="20" height="20" rx="4" fill="white"/>
<path d="M2.96488 6.4684C2.29314 6.4684 1.75 7.02115 1.75 7.70281V12.8729C1.75 13.5545 2.29506 14.1073 2.96488 14.1073C3.63661 14.1073 4.17976 13.5545 4.17976 12.8729V7.70281C4.17976 7.02115 3.63661 6.4684 2.96488 6.4684ZM4.64997 14.7128C4.64997 15.4413 5.2315 16.0311 5.94737 16.0311H6.83214V18.7656C6.83214 19.4473 7.37721 20 8.04702 20C8.71875 20 9.2619 19.4473 9.2619 18.7656V16.0311H10.9028V18.7656C10.9028 19.4473 11.4479 20 12.1177 20C12.7895 20 13.3326 19.4473 13.3326 18.7656V16.0311H14.2174C14.9332 16.0311 15.5148 15.4413 15.5148 14.7128V6.70083H4.64997V14.7128ZM12.7664 1.82375L13.6147 0.253397C13.6608 0.171364 13.6301 0.0658923 13.5476 0.0209692C13.4669 -0.0239538 13.3633 0.00534382 13.3192 0.0893304L12.4613 1.67531C11.7416 1.35108 10.9355 1.16944 10.0833 1.16944C9.23119 1.16944 8.42511 1.35108 7.7054 1.67336L6.8475 0.0893304C6.80335 0.00534382 6.69972 -0.0239538 6.61911 0.0209692C6.53658 0.0658923 6.50587 0.171364 6.55193 0.253397L7.40024 1.82375C5.73434 2.69877 4.60775 4.36288 4.60775 6.27113H15.557C15.5589 4.36093 14.4323 2.69877 12.7664 1.82375ZM7.59216 4.25741C7.33882 4.25741 7.13346 4.04842 7.13346 3.7906C7.13346 3.53278 7.33882 3.32379 7.59216 3.32379C7.8455 3.32379 8.05086 3.53278 8.05086 3.7906C8.04894 4.04842 7.84358 4.25741 7.59216 4.25741ZM12.5764 4.25741C12.3231 4.25741 12.1177 4.04842 12.1177 3.7906C12.1177 3.53278 12.3231 3.32379 12.5764 3.32379C12.8298 3.32379 13.0351 3.53278 13.0351 3.7906C13.0332 4.04842 12.8278 4.25741 12.5764 4.25741ZM17.2018 6.4684C16.5301 6.4684 15.9869 7.02115 15.9869 7.70281V12.8729C15.9869 13.5545 16.532 14.1073 17.2018 14.1073C17.8735 14.1073 18.4167 13.5545 18.4167 12.8729V7.70281C18.4167 7.02115 17.8735 6.4684 17.2018 6.4684Z" fill="white"/>
</svg>
