<svg width="20" height="20" viewBox="0 0 20 20" fill="none" xmlns="http://www.w3.org/2000/svg">
<rect opacity="0.01" width="20" height="20" rx="4" fill="white"/>
<path d="M18.2206 14.6588C17.8975 15.6733 17.4264 16.6351 16.8222 17.5134C15.9776 18.7284 15.1042 19.9534 13.7248 19.9748C12.3681 19.9974 11.9342 19.1745 10.3854 19.1745C8.83659 19.1745 8.35234 19.9534 7.07036 19.9985C5.7449 20.0521 4.72521 18.6712 3.87676 17.462C2.14405 14.985 0.809759 10.4431 2.59909 7.39923C3.0179 6.65489 3.62389 6.03153 4.35771 5.5902C5.09153 5.14888 5.92801 4.90473 6.7852 4.88168C8.08371 4.85734 9.31925 5.75135 10.1079 5.75135C10.9181 5.75135 12.4128 4.66989 13.9894 4.83143C14.7164 4.8589 15.4275 5.05141 16.0682 5.39423C16.7089 5.73706 17.2623 6.22112 17.6861 6.80938C17.5923 6.87224 15.4766 8.10691 15.5001 10.6197C15.5318 13.6535 18.1914 14.6484 18.2199 14.6588H18.2206ZM12.9577 3.20654C13.7191 2.31695 14.0983 1.16527 14.0136 0C12.9985 0.0394283 11.7616 0.666676 11.0264 1.51923C10.3765 2.26273 9.80328 3.46023 9.96341 4.61717C11.0914 4.68476 12.251 4.03318 12.9584 3.20721" fill="white"/>
</svg>
