<svg width="16" height="16" viewBox="0 0 16 16" fill="none" xmlns="http://www.w3.org/2000/svg">
<g clip-path="url(#clip0)">
<path d="M0 8C0 10.1217 0.842855 12.1566 2.34315 13.6569C3.84344 15.1571 5.87827 16 8 16C10.1217 16 12.1566 15.1571 13.6569 13.6569C15.1571 12.1566 16 10.1217 16 8C16 5.87827 15.1571 3.84344 13.6569 2.34315C12.1566 0.842855 10.1217 0 8 0C5.87827 0 3.84344 0.842855 2.34315 2.34315C0.842855 3.84344 0 5.87827 0 8H0Z" fill="#F0F0F0"/>
<path d="M1.65379 3.12923C1.02538 3.94683 0.551541 4.88917 0.275635 5.91289H4.43745L1.65379 3.12923ZM15.7244 5.91289C15.4485 4.8892 14.9747 3.94686 14.3463 3.12927L11.5627 5.91289H15.7244ZM0.275635 10.0868C0.551572 11.1105 1.02542 12.0528 1.65379 12.8704L4.43735 10.0868H0.275635ZM12.8706 1.65358C12.053 1.02517 11.1107 0.551328 10.087 0.275391V4.43717L12.8706 1.65358ZM3.12948 14.346C3.94707 14.9744 4.88942 15.4483 5.9131 15.7242V11.5625L3.12948 14.346ZM5.91307 0.275391C4.88938 0.551328 3.94704 1.02517 3.12948 1.65355L5.91307 4.43714V0.275391ZM10.087 15.7242C11.1107 15.4483 12.053 14.9744 12.8706 14.346L10.087 11.5625V15.7242ZM11.5627 10.0868L14.3463 12.8704C14.9747 12.0529 15.4485 11.1105 15.7244 10.0868H11.5627Z" fill="#0052B4"/>
<path d="M15.9323 6.95653H9.0435V0.0677188C8.69749 0.0226377 8.34893 1.73815e-05 8 0C7.65108 1.4311e-05 7.30253 0.0226346 6.95653 0.0677188V6.9565H0.0677188C0.0226377 7.30251 1.73815e-05 7.65107 0 8C0 8.35372 0.02325 8.70191 0.0677188 9.04347H6.9565V15.9323C7.64923 16.0226 8.35074 16.0226 9.04347 15.9323V9.0435H15.9323C15.9774 8.69749 16 8.34893 16 8C16 7.64634 15.9768 7.29809 15.9323 6.95653Z" fill="#D80027"/>
<path d="M10.0871 10.0866L13.657 13.6565C13.8211 13.4922 13.978 13.3208 14.1272 13.1429L11.0709 10.0866H10.0871V10.0866ZM5.91317 10.0866H5.91311L2.34327 13.6565C2.50757 13.8206 2.67893 13.9775 2.85686 14.1267L5.91317 11.0703V10.0866ZM5.91317 5.91271V5.91265L2.3433 2.34275C2.17919 2.50705 2.02229 2.67841 1.87305 2.85634L4.92939 5.91268H5.91317V5.91271ZM10.0871 5.91271L13.657 2.34278C13.4927 2.17867 13.3214 2.02178 13.1434 1.87256L10.0871 4.9289V5.91271Z" fill="#D80027"/>
</g>
<defs>
<clipPath id="clip0">
<rect width="16" height="16" fill="white"/>
</clipPath>
</defs>
</svg>
