<svg width="15" height="16" viewBox="0 0 15 16" fill="none" xmlns="http://www.w3.org/2000/svg">
<path d="M0.368164 0.228749C0.521738 0.0965915 0.71374 0.0172785 0.915843 0.00251359C1.11795 -0.0122513 1.31944 0.0383135 1.49061 0.146747C4.57383 1.86612 7.63504 3.62349 10.7016 5.36752C9.84658 6.24221 8.96756 7.09556 8.11523 7.97157L8.07655 8.00691C5.55288 5.37219 2.92117 2.8388 0.368164 0.228749Z" fill="#0FF07E"/>
<path d="M0.0376078 2.13346C-0.067725 1.47915 0.0497014 0.808427 0.371073 0.22876C2.92408 2.83815 5.55646 5.3722 8.07945 8.00958C5.49532 10.599 2.91119 13.1901 0.327056 15.7831C0.112861 15.3743 0.0109139 14.916 0.0316055 14.455C0.0396087 10.3476 0.0316054 6.24155 0.036274 2.13413L0.0376078 2.13346Z" fill="#10CFFF"/>
<path d="M10.7019 5.36938C11.739 5.9454 12.7654 6.54008 13.7952 7.13209C13.9916 7.21833 14.1555 7.36467 14.2634 7.55001C14.3712 7.73536 14.4175 7.95015 14.3954 8.16344C14.2894 8.60612 13.8619 8.84012 13.4964 9.04879C12.5627 9.5468 11.6583 10.1155 10.7253 10.6215C9.85828 9.73614 8.95392 8.88346 8.11426 7.9741C8.96793 7.09875 9.84828 6.24474 10.7006 5.37005L10.7019 5.36938Z" fill="#FFCA0A"/>
<path d="M8.07561 8.00872L8.11429 7.97339C8.95596 8.88274 9.85698 9.73609 10.7247 10.6208C7.69857 12.363 4.66515 14.0908 1.62439 15.8042C1.43267 15.9354 1.20491 16.0037 0.97263 15.9997C0.74035 15.9958 0.51504 15.9198 0.327881 15.7822C2.90623 13.1862 5.48881 10.595 8.07561 8.00872Z" fill="#FA3E4D"/>
</svg>
