<svg width="50" height="50" viewBox="0 0 50 50" fill="none" xmlns="http://www.w3.org/2000/svg">
<path d="M24.9998 49.8088C38.7013 49.8088 49.8085 38.7015 49.8085 25.0001C49.8085 11.2986 38.7013 0.191406 24.9998 0.191406C11.2984 0.191406 0.191162 11.2986 0.191162 25.0001C0.191162 38.7015 11.2984 49.8088 24.9998 49.8088Z" fill="white"/>
<path d="M24.9998 49.809C38.7013 49.809 49.8085 38.7018 49.8085 25.0003C49.8085 11.2989 38.7013 0.19165 24.9998 0.19165C11.2984 0.19165 0.191162 11.2989 0.191162 25.0003C0.191162 38.7018 11.2984 49.809 24.9998 49.809Z" fill="white"/>
<path d="M25.1814 10.8975V21.5388L34.1756 25.5579L25.1814 10.8975Z" fill="#00CB6A"/>
<path d="M25.1812 10.8975L16.1858 25.5579L25.1812 21.5388V10.8975Z" fill="#00CB6A"/>
<path d="M25.1814 32.453V39.6837L34.1816 27.2319L25.1814 32.453Z" fill="#00CB6A"/>
<path d="M25.1812 39.6837V32.4519L16.1858 27.2319L25.1812 39.6837Z" fill="#00CB6A"/>
<path d="M25.1814 30.7795L34.1756 25.5571L25.1814 21.5405V30.7795Z" fill="#009950"/>
<path d="M16.1858 25.5571L25.1812 30.7795V21.5405L16.1858 25.5571Z" fill="#00B35D"/>
</svg>
