<svg width="37" height="36" viewBox="0 0 37 36" fill="none" xmlns="http://www.w3.org/2000/svg">
<g clip-path="url(#clip0_637_458)">
<path d="M18.4471 35.6614C28.2391 35.6614 36.177 27.7235 36.177 17.9315C36.177 8.13961 28.2391 0.20166 18.4471 0.20166C8.6552 0.20166 0.717255 8.13961 0.717255 17.9315C0.717255 27.7235 8.6552 35.6614 18.4471 35.6614Z" fill="white"/>
<path fill-rule="evenodd" clip-rule="evenodd" d="M28.2527 13.7288L25.3415 11.6626C25.2476 11.5687 25.1537 11.5687 25.1537 11.5687L10.7852 8H10.4095C10.0339 8.09391 9.93996 8.46957 10.0339 8.84523L17.359 29.0368C17.359 29.1307 17.4529 29.2246 17.5468 29.3185C17.8285 29.5063 18.2042 29.4124 18.2981 29.2246L28.4406 14.7618C28.6284 14.3862 28.5345 13.9166 28.2527 13.7288ZM20.6459 17.5794L25.1536 12.6958L27.2197 14.1984L20.6459 17.5794ZM11.6306 9.12707L19.1436 18.0489L24.4965 12.3202L11.6306 9.12707ZM19.4253 19.0822L26.8443 15.2317L18.5801 27.0649L19.4253 19.0822ZM18.6741 18.7059L11.349 9.97191L17.735 27.5338L18.6741 18.7059Z" fill="#EE5732"/>
</g>
<defs>
<clipPath id="clip0_637_458">
<rect width="35.4598" height="35.8627" fill="white" transform="translate(0.717255)"/>
</clipPath>
</defs>
</svg>
