<svg width="50" height="50" viewBox="0 0 50 50" fill="none" xmlns="http://www.w3.org/2000/svg">
<path d="M24.8087 49.8088C38.5101 49.8088 49.6174 38.7015 49.6174 25.0001C49.6174 11.2986 38.5101 0.191406 24.8087 0.191406C11.1072 0.191406 0 11.2986 0 25.0001C0 38.7015 11.1072 49.8088 24.8087 49.8088Z" fill="white"/>
<path d="M25 50C38.8072 50 50 38.8072 50 25C50 11.1929 38.8072 0 25 0C11.1929 0 0 11.1929 0 25C0 38.8072 11.1929 50 25 50Z" fill="white"/>
<path d="M19.5587 23.1292L25.6287 17.0591L31.6986 23.1316L35.2312 19.5992L25.6287 9.99658L16.0287 19.5966L19.5587 23.1292ZM10.0037 25.6291L13.5337 22.0992L17.0662 25.6291L13.5337 29.1617L10.0037 25.6291ZM19.5587 28.1292L25.6287 34.1966L31.6986 28.1241L35.2312 31.6541L25.6287 41.2592L16.0287 31.6591L19.5587 28.1292ZM34.1912 25.6291L37.7212 22.0992L41.2537 25.6291L37.7212 29.1617L34.1912 25.6291ZM29.2086 25.6291L25.6287 29.1992L22.0487 25.6216L22.6737 24.9942L22.9786 24.6891L25.6287 22.0417L29.2112 25.6266L29.2086 25.6291Z" fill="#F5C300"/>
</svg>
