<svg width="50" height="50" viewBox="0 0 50 50" fill="none" xmlns="http://www.w3.org/2000/svg">
<path d="M24.8087 49.8088C38.5101 49.8088 49.6174 38.7015 49.6174 25.0001C49.6174 11.2986 38.5101 0.191406 24.8087 0.191406C11.1072 0.191406 0 11.2986 0 25.0001C0 38.7015 11.1072 49.8088 24.8087 49.8088Z" fill="white"/>
<path d="M25 50C38.8072 50 50 38.8072 50 25C50 11.1929 38.8072 0 25 0C11.1929 0 0 11.1929 0 25C0 38.8072 11.1929 50 25 50Z" fill="white"/>
<path fill-rule="evenodd" clip-rule="evenodd" d="M26.498 7.4265C25.633 5.92652 24.248 5.92652 23.388 7.4265L7.66053 35.124C6.79305 36.639 7.50303 37.8416 9.23553 37.8416H17.128C17.9114 37.7933 18.6724 37.5614 19.3495 37.1644C20.0266 36.7675 20.6008 36.2166 21.0255 35.5565L30.5255 19.0816C30.8648 18.38 31.0411 17.6108 31.0411 16.8316C31.0411 16.0523 30.8648 15.2831 30.5255 14.5816L27.6905 9.59914L26.498 7.4265ZM36.9505 25.6566C36.0855 24.1566 34.7005 24.1566 33.8205 25.6566L28.3205 35.124C27.4755 36.624 28.183 37.8416 29.8955 37.8416H40.763C42.4955 37.8416 43.203 36.6215 42.338 35.124L36.9505 25.6566Z" fill="#E84142"/>
</svg>
