<svg width="50" height="50" viewBox="0 0 50 50" fill="none" xmlns="http://www.w3.org/2000/svg">
<path d="M24.8087 49.8088C38.5101 49.8088 49.6174 38.7015 49.6174 25.0001C49.6174 11.2986 38.5101 0.191406 24.8087 0.191406C11.1072 0.191406 0 11.2986 0 25.0001C0 38.7015 11.1072 49.8088 24.8087 49.8088Z" fill="white"/>
<path d="M25 50C38.8071 50 50 38.8071 50 25C50 11.1929 38.8071 0 25 0C11.1929 0 0 11.1929 0 25C0 38.8071 11.1929 50 25 50Z" fill="white"/>
<path fill-rule="evenodd" clip-rule="evenodd" d="M13.8592 22.2768H33.0055C33.2454 22.2768 33.4731 22.362 33.6379 22.5157L36.6667 25.262C37.2259 25.7694 36.8287 26.6342 36.0342 26.6342H16.8879C16.6472 26.6342 16.4204 26.5481 16.2546 26.3954L13.2259 23.6481C12.6629 23.1416 13.0639 22.2768 13.8592 22.2768ZM13.2259 18.7259L16.2546 15.9796C16.425 15.8268 16.6528 15.7407 16.8879 15.7407H36.0324C36.8268 15.7407 37.2278 16.6055 36.6657 17.112L33.6398 19.8592C33.4704 20.012 33.2426 20.0981 33.0074 20.0981H13.8592C13.0648 20.0981 12.6629 19.2333 13.2259 18.7259ZM36.6657 31.2741L33.6361 34.0204C33.4667 34.1731 33.2379 34.2592 33.0028 34.2592H13.8592C13.0648 34.2592 12.6629 33.3944 13.2259 32.8879L16.2546 30.1407C16.425 29.9879 16.6528 29.9018 16.8879 29.9018H36.0324C36.8268 29.9018 37.2278 30.7666 36.6657 31.2741Z" fill="url(#paint0_linear_418_457)"/>
<defs>
<linearGradient id="paint0_linear_418_457" x1="14.3268" y1="31.0046" x2="31.5157" y2="14.7241" gradientUnits="userSpaceOnUse">
<stop stop-color="#CB4EE8"/>
<stop offset="1" stop-color="#10F4B1"/>
</linearGradient>
</defs>
</svg>
