<svg width="51" height="51" viewBox="0 0 51 51" fill="none" xmlns="http://www.w3.org/2000/svg">
<path d="M25 50.1914C38.8071 50.1914 50 38.9985 50 25.1914C50 11.3843 38.8071 0.191406 25 0.191406C11.1929 0.191406 0 11.3843 0 25.1914C0 38.9985 11.1929 50.1914 25 50.1914Z" fill="white"/>
<g clip-path="url(#clip0_418_431)">
<path d="M25.7191 49.7192C39.3711 49.7192 50.4382 38.6521 50.4382 25.0001C50.4382 11.3481 39.3711 0.281006 25.7191 0.281006C12.0671 0.281006 1 11.3481 1 25.0001C1 38.6521 12.0671 49.7192 25.7191 49.7192Z" fill="white"/>
<path d="M32.0086 20.6325C31.5449 20.3657 30.9487 20.3657 30.4188 20.6325L26.7091 22.833L24.1918 24.2333L20.5484 26.4338C20.0847 26.7005 19.4885 26.7005 18.9586 26.4338L16.11 24.7001C15.6463 24.4333 15.3152 23.8999 15.3152 23.2997V19.9656C15.3152 19.4321 15.5801 18.8987 16.11 18.5653L18.9586 16.8983C19.4223 16.6315 20.0185 16.6315 20.5484 16.8983L23.3969 18.632C23.8606 18.8987 24.1918 19.4321 24.1918 20.0323V22.2328L26.7091 20.7658V18.4986C26.7091 17.9652 26.4441 17.4317 25.9142 17.0983L20.6146 13.9642C20.1509 13.6975 19.5548 13.6975 19.0248 13.9642L13.5928 17.1649C13.0629 17.4317 12.7979 17.9652 12.7979 18.4986V24.7667C12.7979 25.3002 13.0629 25.8337 13.5928 26.1671L18.9586 29.3011C19.4223 29.5679 20.0185 29.5679 20.5484 29.3011L24.1918 27.1672L26.7091 25.7003L30.3525 23.5665C30.8163 23.2997 31.4125 23.2997 31.9424 23.5665L34.7909 25.2335C35.2546 25.5002 35.5858 26.0337 35.5858 26.6338V29.9679C35.5858 30.5014 35.3209 31.0349 34.7909 31.3683L32.0086 33.0353C31.5449 33.302 30.9487 33.302 30.4188 33.0353L27.5703 31.3683C27.1066 31.1015 26.7754 30.5681 26.7754 29.9679V27.8341L24.2581 29.3011V31.5016C24.2581 32.0351 24.5231 32.5685 25.053 32.902L30.4188 36.036C30.8825 36.3028 31.4787 36.3028 32.0086 36.036L37.3744 32.902C37.8381 32.6352 38.1694 32.1018 38.1694 31.5016V25.1668C38.1694 24.6334 37.9044 24.0999 37.3744 23.7665L32.0086 20.6325Z" fill="#8247E5"/>
</g>
<defs>
<clipPath id="clip0_418_431">
<rect width="49.4382" height="50" fill="white" transform="translate(1)"/>
</clipPath>
</defs>
</svg>
