<svg width="50" height="51" viewBox="0 0 50 51" fill="none" xmlns="http://www.w3.org/2000/svg">
<path d="M25 50.1914C38.8071 50.1914 50 38.9985 50 25.1914C50 11.3843 38.8071 0.191406 25 0.191406C11.1929 0.191406 0 11.3843 0 25.1914C0 38.9985 11.1929 50.1914 25 50.1914Z" fill="white"/>
<path d="M25.0001 0.649414C11.6072 0.649414 0.649414 11.6072 0.649414 25.0001C0.649414 38.3929 11.6072 49.3507 25.0001 49.3507C38.3929 49.3507 49.3507 38.3929 49.3507 25.0001C49.3507 11.6072 38.3929 0.649414 25.0001 0.649414Z" fill="white"/>
<path d="M19.7842 18.3599C19.8009 18.3516 19.8134 18.3433 19.83 18.3391C20.0008 18.26 20.1716 18.185 20.3424 18.1184V14.7484C20.3424 14.1361 19.8467 13.6362 19.2344 13.6362H14.6398V23.3086C15.7437 21.1717 17.5348 19.4138 19.7842 18.3599Z" fill="#00CB6A"/>
<path d="M24.4618 24.25C24.4743 24.25 24.4868 24.25 24.4993 24.25H25.4866C26.9737 24.25 28.1775 23.0462 28.1775 21.5591V18.6765C27.6235 18.5807 25.0908 18.5266 24.5035 18.5266C23.0039 18.5266 21.5793 18.8598 20.3046 19.4597C17.1347 20.9426 14.8853 24.0584 14.6353 27.7241C14.6187 27.9532 14.6104 28.1823 14.6104 28.4156C14.6104 28.6488 14.6187 28.8779 14.6353 29.107V35.2554C14.6353 35.8677 15.131 36.3634 15.7434 36.3634H20.338C20.338 36.3634 20.338 34.0307 20.338 31.8105V28.3614C20.3421 26.087 22.1875 24.25 24.4618 24.25Z" fill="#00CB6A"/>
<path d="M30.2728 31.6397C30.2561 31.648 30.2436 31.6563 30.227 31.6605C30.0562 31.7397 29.8854 31.8146 29.7146 31.8813V35.2512C29.7146 35.8635 30.2103 36.3634 30.8226 36.3634H35.413V26.691C34.3092 28.8279 32.518 30.5858 30.2728 31.6397Z" fill="#00CB6A"/>
<path d="M35.4128 20.8926V14.7443C35.4128 14.1319 34.9171 13.6362 34.3047 13.6362H29.7101C29.7101 13.6362 29.7101 19.8679 29.7101 21.6382C29.706 23.9126 27.8606 25.7496 25.5904 25.7496C25.5821 25.7496 25.5696 25.7496 25.5613 25.7496H24.5615C23.0744 25.7496 21.8706 26.9535 21.8706 28.4406V31.3231C22.4246 31.4189 24.9573 31.4731 25.5446 31.4731C25.6113 31.4731 25.6737 31.4731 25.7404 31.4689C27.1608 31.4439 28.5105 31.1148 29.7226 30.5483C29.731 30.5441 29.7393 30.54 29.7476 30.5358C32.9176 29.0529 35.167 25.9371 35.4169 22.2714C35.4336 22.0423 35.4419 21.8132 35.4419 21.5799C35.4378 21.3508 35.4294 21.1217 35.4128 20.8926Z" fill="#00CB6A"/>
</svg>
