<svg width="50" height="50" viewBox="0 0 50 50" fill="none" xmlns="http://www.w3.org/2000/svg">
<path d="M24.8087 49.8088C38.5101 49.8088 49.6174 38.7015 49.6174 25.0001C49.6174 11.2986 38.5101 0.191406 24.8087 0.191406C11.1072 0.191406 0 11.2986 0 25.0001C0 38.7015 11.1072 49.8088 24.8087 49.8088Z" fill="white"/>
<path d="M23.9021 13.2395C24.5181 12.9202 25.4555 12.9202 26.0715 13.2395L32.3577 16.4977C32.7287 16.69 32.9324 16.9766 32.969 17.2724H32.9749V33.65C32.9668 33.9726 32.7611 34.2931 32.3577 34.5023L26.0715 37.7605C25.4555 38.0798 24.5181 38.0798 23.9021 37.7605L17.616 34.5023C17.2142 34.2941 17.0214 33.9712 17.0119 33.65C17.0109 33.6183 17.0108 33.5919 17.0117 33.5701L17.0117 17.3776C17.011 17.3599 17.011 17.3421 17.0115 17.3245L17.0119 17.2724L17.0147 17.2724C17.0426 16.9733 17.2371 16.6941 17.616 16.4977L23.9021 13.2395ZM31.9853 26.4093L26.0715 29.4746C25.4555 29.7939 24.5181 29.7939 23.9021 29.4746L18.0012 26.4162V33.6175L23.9021 36.6599C24.2353 36.8347 24.5811 37.005 24.9193 37.0267L24.9868 37.0289C25.3392 37.03 25.6813 36.8544 26.0282 36.6882L31.9853 33.5914V26.4093ZM15.9894 33.2939C15.9894 33.9212 16.0638 34.3337 16.2113 34.6244C16.3336 34.8652 16.5171 35.0492 16.8522 35.2732L16.8713 35.2859C16.9448 35.3345 17.0258 35.3855 17.1244 35.4453L17.2407 35.5152L17.5977 35.7267L17.0856 36.5576L16.686 36.3207L16.6188 36.2802C16.5033 36.2101 16.4075 36.1501 16.3182 36.091C15.3633 35.4591 15.0071 34.7705 15.0001 33.3375L15 33.2939H15.9894ZM24.4919 22.0197C24.4462 22.0351 24.4033 22.0529 24.3642 22.0732L18.0781 25.3314C18.0715 25.3349 18.0652 25.3382 18.0592 25.3416L18.0539 25.3446L18.0637 25.3502L18.0781 25.3578L24.3642 28.616C24.4033 28.6363 24.4462 28.6541 24.4919 28.6696V22.0197ZM25.4817 22.0197V28.6696C25.5274 28.6541 25.5703 28.6363 25.6094 28.616L31.8956 25.3578C31.9022 25.3544 31.9085 25.351 31.9144 25.3477L31.9198 25.3446L31.9099 25.3391L31.8956 25.3314L25.6094 22.0732C25.5703 22.0529 25.5274 22.0351 25.4817 22.0197ZM31.9853 18.4342L26.3463 21.357L31.9853 24.2799V18.4342ZM18.0012 18.441V24.273L23.6271 21.357L18.0012 18.441ZM25.6094 14.0981C25.2825 13.9286 24.6911 13.9286 24.3642 14.0981L18.0781 17.3563C18.0715 17.3597 18.0652 17.3631 18.0592 17.3665L18.0539 17.3695L18.0637 17.375L18.0781 17.3827L24.3642 20.6409C24.6911 20.8103 25.2825 20.8103 25.6094 20.6409L31.8956 17.3827C31.9022 17.3792 31.9085 17.3759 31.9144 17.3725L31.9198 17.3695L31.9099 17.3639L31.8956 17.3563L25.6094 14.0981ZM32.9144 14.4554L33.314 14.6922L33.3812 14.7327C33.4967 14.8027 33.5925 14.8628 33.6818 14.9219C34.6367 15.5537 34.9929 16.2425 34.9998 17.6754L35 17.7191H34.0106C34.0106 17.0916 33.9362 16.6791 33.7887 16.3886C33.6664 16.1477 33.4829 15.9637 33.1478 15.7398L33.1287 15.727C33.0552 15.6784 32.9742 15.6274 32.8756 15.5675L32.7593 15.4977L32.4023 15.2862L32.9144 14.4554Z" fill="#1969FF"/>
</svg>
