<svg width="50" height="50" viewBox="0 0 50 50" fill="none" xmlns="http://www.w3.org/2000/svg">
<path d="M24.8087 49.8088C38.5101 49.8088 49.6174 38.7015 49.6174 25.0001C49.6174 11.2986 38.5101 0.191406 24.8087 0.191406C11.1072 0.191406 0 11.2986 0 25.0001C0 38.7015 11.1072 49.8088 24.8087 49.8088Z" fill="white"/>
<path fill-rule="evenodd" clip-rule="evenodd" d="M27.4913 18.2556C27.4913 14.4038 25.6474 11.0917 24.2445 10.0139C24.2386 10.0102 24.1368 9.95169 24.1455 10.1064C24.1455 10.1079 24.144 10.1086 24.144 10.1109C24.0276 17.5471 20.2932 19.5622 18.2404 22.2776C13.5025 28.5427 17.9086 35.4118 22.3954 36.6814C24.9059 37.3914 21.8155 35.4244 21.4174 31.2692C20.9364 26.247 27.4913 22.413 27.4913 18.2556Z" fill="#205FEC"/>
<path fill-rule="evenodd" clip-rule="evenodd" d="M29.9528 20.7861C29.9223 20.7661 29.8786 20.7527 29.8488 20.8001C29.7665 21.7366 28.7631 23.7383 27.4918 25.5772C23.1789 31.8135 25.6363 34.8205 27.0181 36.4351C27.8207 37.3723 27.0181 36.4351 29.0236 35.4772C29.1815 35.4017 32.937 33.394 33.3438 28.8197C33.7375 24.3898 30.9461 21.5974 29.9528 20.7861Z" fill="#205FEC"/>
</svg>
