<svg width="18" height="14" viewBox="0 0 18 14" fill="none" xmlns="http://www.w3.org/2000/svg">
<path d="M17.7114 2.09122C17.222 2.73326 16.6296 3.28018 15.9343 3.73195C15.9418 3.82332 15.9455 3.96078 15.9455 4.14434C15.9455 4.99593 15.8066 5.84542 15.5286 6.69282C15.2507 7.54022 14.8286 8.35367 14.2624 9.13318C13.6963 9.91269 13.022 10.6021 12.2396 11.2014C11.4573 11.8007 10.514 12.2789 9.40969 12.6359C8.30541 12.993 7.12486 13.1715 5.86804 13.1715C3.88689 13.1715 2.07372 12.6967 0.428528 11.747C0.684009 11.773 0.96897 11.786 1.28341 11.786C2.9286 11.786 4.39458 11.3342 5.68134 10.4307C4.91396 10.4173 4.22659 10.206 3.61924 9.79702C3.01189 9.38799 2.59497 8.8658 2.3685 8.23046C2.60995 8.26315 2.83314 8.2795 3.03809 8.2795C3.35253 8.2795 3.66322 8.24345 3.97018 8.17137C3.15133 8.0205 2.47332 7.65547 1.93615 7.07629C1.39898 6.49711 1.1304 5.82447 1.1304 5.05837V5.0194C1.62733 5.26834 2.16122 5.40245 2.73207 5.42172C2.24919 5.13339 1.86549 4.75705 1.581 4.2927C1.29651 3.82834 1.1538 3.32418 1.15286 2.7802C1.15286 2.20353 1.31382 1.67003 1.63575 1.1797C2.52011 2.15534 3.59678 2.9361 4.86577 3.52199C6.13475 4.10788 7.49264 4.43351 8.93943 4.49889C8.88141 4.24995 8.8524 4.00771 8.8524 3.77219C8.8524 2.89461 9.19772 2.14654 9.88836 1.52796C10.579 0.909386 11.4142 0.600098 12.394 0.600098C13.4178 0.600098 14.2807 0.934112 14.9826 1.60214C15.7799 1.46468 16.5295 1.20945 17.2314 0.836464C16.9609 1.58915 16.442 2.1721 15.6746 2.58532C16.3549 2.51995 17.0348 2.35608 17.7142 2.09373L17.7114 2.09122Z" fill="#F8FAFB"/>
</svg>
