<svg width="32" height="32" viewBox="0 0 32 32" fill="none" xmlns="http://www.w3.org/2000/svg">
<rect x="0.5" y="0.5" width="31" height="31" rx="15.5" stroke="#00CB6A"/>
<path d="M24.7115 11.0911C24.222 11.7331 23.6296 12.2801 22.9343 12.7318C22.9418 12.8232 22.9455 12.9607 22.9455 13.1442C22.9455 13.9958 22.8066 14.8453 22.5286 15.6927C22.2507 16.5401 21.8286 17.3536 21.2624 18.1331C20.6963 18.9126 20.022 19.602 19.2397 20.2013C18.4573 20.8006 17.514 21.2787 16.4097 21.6358C15.3054 21.9929 14.1249 22.1714 12.8681 22.1714C10.8869 22.1714 9.07373 21.6966 7.42854 20.7469C7.68402 20.7729 7.96898 20.7859 8.28342 20.7859C9.92861 20.7859 11.3946 20.3341 12.6814 19.4306C11.914 19.4171 11.2266 19.2059 10.6193 18.7969C10.0119 18.3879 9.59499 17.8657 9.36852 17.2303C9.60996 17.263 9.83316 17.2794 10.0381 17.2794C10.3525 17.2794 10.6632 17.2433 10.9702 17.1712C10.1513 17.0204 9.47333 16.6553 8.93617 16.0762C8.399 15.497 8.13042 14.8243 8.13042 14.0582V14.0193C8.62734 14.2682 9.16123 14.4023 9.73209 14.4216C9.2492 14.1333 8.86551 13.7569 8.58102 13.2926C8.29653 12.8282 8.15381 12.3241 8.15288 11.7801C8.15288 11.2034 8.31384 10.6699 8.63576 10.1796C9.52012 11.1552 10.5968 11.936 11.8658 12.5219C13.1348 13.1078 14.4927 13.4334 15.9394 13.4988C15.8814 13.2498 15.8524 13.0076 15.8524 12.7721C15.8524 11.8945 16.1977 11.1464 16.8884 10.5278C17.579 9.90926 18.4143 9.59998 19.3941 9.59998C20.4179 9.59998 21.2807 9.93399 21.9826 10.602C22.7799 10.4646 23.5295 10.2093 24.2314 9.83634C23.9609 10.589 23.442 11.172 22.6746 11.5852C23.355 11.5198 24.0348 11.356 24.7143 11.0936L24.7115 11.0911Z" fill="#00CB6A"/>
</svg>
